<svg height="1000" width="992" xmlns="http://www.w3.org/2000/svg"><path d="M0 501.5q0-215 140.5-355.5t355.5-140.5 355.5 140.5 140.5 355.5q0 182-103 313t-280 171q-9-17-33.5-52t-34.5-56q64 26 86 26 16 0 16-50 0-93-17-93-25 0-97 55 0-14-15-12l-5 0q-26-69-26-123 0-15 3-30 92 45 148 45 31 0 93.5-18t62.5-39q0-13-17-13-26 0-75 7t-75 7q-27 0-59.5-14t-32.5-38q0-5 1.5-7.5t4.5-3 6 0 8 1 9 .5q9 0 26 2.5t25 2.5q31 0 127-36.5t96-56.5q0-12-18.5-17t-34.5-5q-14 0-42 7.5t-61 18-44 13.5q4-20 4-32 0-47-25-109.5t-58-92.5q-27-24-72-33-28-36-87.5-65.5t-105.5-29.5q-9 0-27.5 3.5t-23.5 4.5l-22 31 6 1q7 0 21.5-2t21.5-2q34 0 78 14-28 14-49 19-2 1-13 2.5t-18.5 3-14 6-6.5 11.5q56-6 84-6 38 0 60 7-77 9-118.5 53t-41.5 121q0 27 4 50 19 120 73 358 33 154 37 170l1 4q-160-50-251-185.5t-91-307.5zm283-124q0 6 3 12-1-16 18-28t36-12q8 0 20 5-10-13-29-13-17 0-32.5 9.5t-15.5 26.5zm33 75q0-13 10.5-23.5t23.5-10.5 23.5 10.5 10.5 23.5-10.5 23.5-23.5 10.5-23.5-10.5-10.5-23.5zm40-11q0 8 9 8t9-8q0-9-9-9t-9 9zm168-87q8-13 37-13 13 0 33 10-10-22-35-22-31 0-35 25zm23 78q0-12 9-20.5t20-8.5q12 0 20.5 8.5t8.5 20.5q0 11-8.5 20t-20.5 9q-11 0-20-9t-9-20zm35-10q0 8 7 8 8 0 8-8 0-7-8-7-7 0-7 7z"/></svg>